<?xml version="1.0" encoding="UTF-8" standalone="no"?>
<!-- Created with Inkscape (http://www.inkscape.org/) -->

<svg
   width="87.958275mm"
   height="86.661377mm"
   viewBox="0 0 87.958275 86.661377"
   version="1.1"
   id="svg1"
   xml:space="preserve"
   xmlns:inkscape="http://www.inkscape.org/namespaces/inkscape"
   xmlns:sodipodi="http://sodipodi.sourceforge.net/DTD/sodipodi-0.dtd"
   xmlns="http://www.w3.org/2000/svg"
   xmlns:svg="http://www.w3.org/2000/svg"><sodipodi:namedview
     id="namedview1"
     pagecolor="#ffffff"
     bordercolor="#000000"
     borderopacity="0.25"
     inkscape:showpageshadow="2"
     inkscape:pageopacity="0.0"
     inkscape:pagecheckerboard="0"
     inkscape:deskcolor="#d1d1d1"
     inkscape:document-units="mm" /><defs
     id="defs1" /><g
     inkscape:label="Layer 1"
     inkscape:groupmode="layer"
     id="layer1"
     transform="translate(-65.58204,-96.719159)"><path
       id="path4"
       style="fill:#2563eb;fill-opacity:1;stroke-width:0.264583"
       d="M 102.11676,96.719161 A 44.81123,44.007442 0 0 0 65.582043,131.89531 h 8.716781 a 36.297096,35.646027 0 0 1 27.808126,-26.63403 z m 42.48217,52.055739 a 36.297096,35.646027 0 0 1 -25.68939,25.61652 l -0.01,8.68939 a 44.81123,44.007442 0 0 0 34.53691,-34.30591 z" /><path
       id="path1"
       style="display:inline;fill:#ff5722;fill-opacity:1;stroke-width:0.264583"
       d="m 118.99584,97.060742 -0.01,8.686288 a 36.297096,35.646027 0 0 1 25.74726,26.14828 h 8.80722 A 44.81123,44.007442 0 0 0 118.99584,97.060742 Z M 65.704,148.7749 a 44.81123,44.007442 0 0 0 36.31613,34.60564 l 0.009,-8.53953 A 36.297096,35.646027 0 0 1 74.433183,148.7749 Z" /></g></svg>
