<?xml version="1.0" encoding="UTF-8" standalone="no"?>
<!-- Created with Inkscape (http://www.inkscape.org/) -->

<svg
   version="1.1"
   id="svg1"
   width="577.31177"
   height="83.263359"
   viewBox="0 0 577.31177 83.26336"
   sodipodi:docname="sample logo.svg"
   inkscape:version="1.3 (0e150ed6c4, 2023-07-21)"
   xml:space="preserve"
   xmlns:inkscape="http://www.inkscape.org/namespaces/inkscape"
   xmlns:sodipodi="http://sodipodi.sourceforge.net/DTD/sodipodi-0.dtd"
   xmlns="http://www.w3.org/2000/svg"
   xmlns:svg="http://www.w3.org/2000/svg"><defs
     id="defs1" /><sodipodi:namedview
     id="namedview1"
     pagecolor="#ffffff"
     bordercolor="#000000"
     borderopacity="0.25"
     inkscape:showpageshadow="2"
     inkscape:pageopacity="0.0"
     inkscape:pagecheckerboard="0"
     inkscape:deskcolor="#d1d1d1"
     inkscape:zoom="1.1196396"
     inkscape:cx="252.31334"
     inkscape:cy="169.25089"
     inkscape:window-width="1920"
     inkscape:window-height="974"
     inkscape:window-x="-11"
     inkscape:window-y="-11"
     inkscape:window-maximized="1"
     inkscape:current-layer="g1" /><g
     inkscape:groupmode="layer"
     inkscape:label="Image"
     id="g1"
     transform="translate(-9.6294546,-127.62809)"><rect
       style="opacity:1;fill:#000000;fill-opacity:0;stroke-width:0.89258"
       id="rect53"
       width="451.03799"
       height="52.69553"
       x="60.733829"
       y="142.00999"
       inkscape:export-filename="app\public\logo.svg"
       inkscape:export-xdpi="96"
       inkscape:export-ydpi="96" /><path
       id="rect1"
       style="fill:#ff5722;fill-opacity:1;stroke-width:1.79136"
       d="m 254.28953,127.62809 v 8.25574 h 54.64851 v -8.25574 z m 5.70566,10.17954 v 8.25576 h 42.48634 v -8.25576 z m 14.93716,10.33872 -8.25573,0.0414 0.2076,42.48635 8.25923,-0.0414 z m 10.62936,0 -8.25573,0.0414 0.2076,42.48635 8.25923,-0.0414 z m 10.62937,0 -8.25573,0.0414 0.2076,42.48635 8.25923,-0.0414 z m -36.19589,44.30979 v 8.25574 h 42.48634 v -8.25574 z m -5.70566,10.17954 v 8.25577 h 54.64851 v -8.25577 z"
       inkscape:export-filename="app\public\logo.png"
       inkscape:export-xdpi="96"
       inkscape:export-ydpi="96" /><path
       style="-inkscape-font-specification:'Linear Beam';fill:#2563eb;stroke-width:1.77156"
       d="m 28.148178,147.61472 h -11.64034 l 0.264553,-1.78573 h 11.64034 z m -0.462968,3.1085 H 15.912593 l 0.264553,-1.78573 h 11.838756 z m -0.39683,3.04236 H 15.449625 l 0.264553,-1.71959 h 11.838756 z m -1.124351,6.217 h -9.457776 l 0.264553,-1.78573 h 9.457777 z m -0.529106,3.30692 h -9.457777 l 0.330692,-1.78574 h 9.391638 z m -8.994809,-3.30692 h -2.116425 l 0.330691,-1.78573 h 2.050288 z m 8.664117,6.34928 H 13.465476 l 0.264553,-1.7196 h 11.838756 z m -9.193223,-3.04236 h -2.116425 l 0.330691,-1.78574 h 2.050287 z m 8.597979,6.15086 H 12.93637 l 0.330691,-1.78574 h 11.772617 z m -0.925936,6.15086 h -0.79366 l 0.264553,-1.7196 h 0.79366 z m 0.462968,-3.04236 H 13.200923 l 0.264553,-1.78574 h 11.045096 z m -1.256628,3.04236 H 12.076572 l 0.264553,-1.7196 h 10.912819 z m -9.788468,-3.04236 h -0.727521 l 0.264553,-1.78574 h 0.727521 z m 10.053021,6.15086 H 11.547465 l 0.330692,-1.78573 h 11.706479 z m -0.529106,3.1085 h -7.738181 l 0.264553,-1.78573 h 7.738181 z m -0.39683,3.04236 h -5.092649 l 0.264553,-1.71959 h 5.092649 z m -7.341351,-3.04236 h -3.968298 l 0.264553,-1.78573 h 3.968298 z m 2.248702,3.04236 h -6.61383 l 0.264553,-1.71959 h 6.61383 z m 4.563543,3.1085 H 10.026285 l 0.264553,-1.78573 h 11.772617 z m -0.462968,3.1085 H 9.6294548 l 0.2645532,-1.78573 h 11.706479 z m 43.122138,-31.085 H 48.98171 l 0.264553,-1.78573 h 15.476362 z m 3.1085,9.25936 H 64.92104 l 0.264553,-1.78573 h 2.71167 z m -0.529106,-6.217 H 51.69338 l 0.264554,-1.71959 h 15.344085 z m 0.529106,3.1085 H 53.743668 l 0.264553,-1.78573 h 13.889042 z m -0.462968,6.15087 h -3.439192 l 0.264554,-1.7196 h 3.439191 z m -2.182564,-3.04237 h -9.590053 l 0.264553,-1.78573 h 9.590053 z m -1.256628,3.04237 h -8.92867 l 0.264553,-1.7196 h 8.928671 z m 2.447117,6.217 h -1.058212 l 0.330691,-1.78574 h 0.992075 z M 51.69338,163.02494 h -6.283138 l 0.264553,-1.71959 h 6.283139 z m 15.013394,12.36787 h -12.434 l 0.264553,-1.78574 h 12.434 z m -21.36267,-15.41023 h -4.695819 l 0.264553,-1.78573 h 4.695819 z M 65.7147,181.54367 h -5.158788 l 0.264554,-1.7196 h 5.158787 z m -0.661383,-3.04236 H 53.875944 l 0.264553,-1.78574 H 65.384008 Z M 40.648285,159.98258 h -6.61383 l 0.264553,-1.78573 h 6.61383 z m 4.232851,3.04236 H 33.571487 l 0.264553,-1.71959 h 11.309649 z m 3.1085,3.1085 H 33.04238 l 0.330692,-1.78573 h 14.881117 z m 12.566276,15.41023 H 53.2807 l 0.264553,-1.7196 h 7.275213 z m 4.563543,3.1085 H 52.88387 l 0.264553,-1.78574 H 65.450146 Z M 44.814997,169.24194 h -5.687893 l 0.264553,-1.78573 h 5.754032 z m 19.907628,18.51873 h -8.068872 l 0.264553,-1.78574 h 8.068872 z M 43.889061,172.28431 h -6.084723 l 0.264553,-1.7196 h 6.084723 z m -4.761957,-3.04237 h -6.547692 l 0.264554,-1.78573 h 6.547691 z m 25.066415,21.56109 H 51.891795 l 0.264554,-1.7196 h 12.301723 z m -7.539766,-3.04236 h -4.232851 l 0.264553,-1.78574 h 4.232851 z M 37.804338,172.28431 h -5.687894 l 0.264553,-1.7196 h 5.687894 z m 5.092649,6.217 H 39.25938 l 0.264554,-1.78574 h 3.637606 z m 0.462968,-3.1085 H 31.653476 l 0.330692,-1.78574 h 11.706478 z m -0.992075,6.15086 h -7.605904 l 0.264553,-1.7196 h 7.672043 z m -3.1085,-3.04236 h -8.068872 l 0.264553,-1.78574 h 8.068873 z m 2.645532,6.15086 H 30.132295 l 0.264553,-1.78574 h 11.772618 z m -7.142936,-3.1085 h -4.166713 l 0.264554,-1.7196 h 4.166712 z m 6.679968,6.217 H 30.859817 l 0.264553,-1.78574 h 10.582127 z m -0.529106,3.04236 H 29.206359 l 0.330692,-1.7196 h 11.64034 z m -10.053021,-3.04236 h -1.256628 l 0.330691,-1.78574 h 1.19049 z M 111.54851,163.2895 H 99.709759 l 0.330691,-1.78574 h 11.77262 z m -3.57146,3.04236 H 96.270568 l 0.264553,-1.7196 H 108.2416 Z M 88.730802,154.03014 H 86.217546 L 86.4821,152.2444 h 2.513255 z m 0.462968,-3.1085 H 78.479366 l 0.264553,-1.78574 h 10.714404 z m 15.14567,18.51872 h -3.76988 l 0.26455,-1.78574 h 3.76988 z M 86.217546,154.03014 h -8.201148 l 0.330691,-1.78574 H 86.4821 Z m 2.050288,3.04236 H 82.18311 l 0.264553,-1.7196 h 6.150862 z m 12.301726,12.36786 h -8.002737 l 0.264553,-1.78574 h 8.002734 z M 87.804866,160.181 h -2.711671 l 0.264554,-1.78574 h 2.71167 z m -0.462968,3.1085 h -0.330692 l 0.264553,-1.78574 h 0.330692 z m -5.158788,-6.217 h -4.695819 l 0.264553,-1.7196 h 4.695819 z m 21.23039,18.51872 h -9.590049 l 0.264553,-1.7196 h 9.656196 z m -1.58732,-3.04236 H 88.40011 l 0.330692,-1.78574 h 13.359938 z m 2.5794,6.15086 h -5.555619 l 0.264554,-1.78573 h 5.555615 z M 85.093195,160.181 h -8.002734 l 0.264554,-1.78574 h 8.002734 z m 1.918011,3.1085 H 76.495217 l 0.264553,-1.78574 h 10.515989 z m 21.627224,24.66958 h -3.04236 l 0.26455,-1.78573 h 3.1085 z m -2.57939,-6.15086 H 93.162068 l 0.264553,-1.78573 h 12.963109 z m 3.6376,9.25936 h -3.43919 l 0.26455,-1.78573 h 3.4392 z M 86.746653,166.33186 H 76.032249 l 0.264553,-1.7196 h 10.714404 z m 20.304457,18.51872 H 94.220281 l 0.264553,-1.71959 H 107.31566 Z M 85.754578,172.54886 h -1.785734 l 0.330692,-1.78574 h 1.719596 z m 0.529107,-3.1085 H 75.503142 l 0.330692,-1.78574 h 10.714404 z m 19.312385,18.51872 H 95.278493 l 0.264553,-1.78573 h 10.317574 z m 0.66138,3.1085 h -9.325499 l 0.330691,-1.78573 H 106.522 Z M 93.823451,175.59122 H 74.577206 l 0.264553,-1.7196 h 19.246245 z m 5.02651,3.1085 H 74.0481 l 0.264553,-1.78573 h 24.801862 z m -14.881117,-6.15086 h -8.92867 l 0.264553,-1.78574 h 8.994809 z m 3.968298,9.25936 h -2.182564 l 0.264554,-1.78573 h 2.182563 z m -2.182564,0 H 73.585132 l 0.264553,-1.78573 h 12.169447 z m -1.388904,3.04236 H 73.056025 l 0.330692,-1.71959 h 11.24351 z m -0.992074,3.1085 h -3.571468 l 0.264553,-1.78573 h 3.637606 z m -0.529107,3.1085 h -2.447117 l 0.330692,-1.78573 h 2.380978 z m -3.042361,-3.1085 h -7.209075 l 0.264553,-1.78573 h 7.209075 z m 0.595244,3.1085 h -8.201149 l 0.264553,-1.78573 h 8.267288 z m 50.794184,-43.45286 h -11.64034 l 0.26455,-1.78573 h 11.64034 z m -0.46297,3.1085 h -11.77262 l 0.26456,-1.78573 h 11.83875 z m -0.39683,3.04236 h -11.83875 l 0.26455,-1.71959 h 11.83875 z m -1.12435,6.217 h -9.45778 l 0.26456,-1.78573 h 9.45777 z m -0.52911,3.30692 h -9.45777 l 0.33069,-1.78574 h 9.39164 z m -8.9948,-3.30692 h -2.11643 l 0.33069,-1.78573 h 2.05029 z m 8.66411,6.34928 h -11.83875 l 0.26455,-1.7196 h 11.83876 z m -9.19322,-3.04236 h -2.11643 l 0.33069,-1.78574 h 2.05029 z m 8.59798,6.15086 h -11.77262 l 0.33069,-1.78574 h 11.77262 z m -0.92594,6.15086 h -0.79366 l 0.26455,-1.7196 h 0.79366 z m 0.46297,-3.04236 h -11.0451 l 0.26456,-1.78574 h 11.04509 z m -1.25663,3.04236 h -10.91282 l 0.26456,-1.7196 h 10.91281 z m -9.78847,-3.04236 h -0.72752 l 0.26456,-1.78574 h 0.72752 z m 10.05302,6.15086 h -11.70647 l 0.33069,-1.78573 h 11.70648 z m -0.5291,3.1085 h -7.73818 l 0.26455,-1.78573 h 7.73818 z m -0.39683,3.04236 h -5.09265 l 0.26455,-1.71959 h 5.09265 z m -7.34135,-3.04236 h -3.9683 l 0.26455,-1.78573 h 3.9683 z m 2.2487,3.04236 h -6.61383 l 0.26455,-1.71959 h 6.61383 z m 4.56354,3.1085 h -11.77261 l 0.26455,-1.78573 h 11.77262 z m -0.46297,3.1085 h -11.70647 l 0.26455,-1.78573 h 11.70648 z m 43.12214,-31.085 h -15.47636 l 0.26455,-1.78573 h 15.47637 z m 3.1085,9.25936 h -2.64553 l 0.26455,-1.78573 h 2.71167 z m -0.5291,-6.217 h -15.34409 l 0.26455,-1.71959 h 15.34409 z m 0.5291,3.1085 h -13.8229 l 0.26455,-1.78573 h 13.88904 z m -0.46297,6.15087 h -3.43919 l 0.26456,-1.7196 h 3.43919 z m -2.18256,-3.04237 h -9.59005 l 0.26455,-1.78573 h 9.59005 z m -1.25663,3.04237 h -8.92867 l 0.26456,-1.7196 h 8.92867 z m 2.44712,6.217 h -1.05821 l 0.33069,-1.78574 h 0.99207 z m -14.41815,-15.47637 h -6.28314 l 0.26456,-1.71959 h 6.28313 z m 15.01339,12.36787 h -12.434 l 0.26456,-1.78574 h 12.434 z m -21.36267,-15.41023 h -4.69581 l 0.26455,-1.78573 h 4.69582 z m 20.3706,21.56109 h -5.15879 l 0.26456,-1.7196 h 5.15878 z m -0.66138,-3.04236 h -11.17737 l 0.26455,-1.78574 h 11.24351 z m -24.40503,-18.51873 h -6.61383 l 0.26455,-1.78573 h 6.61383 z m 4.23285,3.04236 h -11.30965 l 0.26455,-1.71959 h 11.30965 z m 3.1085,3.1085 h -14.94726 l 0.33069,-1.78573 h 14.88112 z m 12.56627,15.41023 h -7.27521 l 0.26455,-1.7196 h 7.27522 z m 4.56355,3.1085 h -12.23559 l 0.26455,-1.78574 h 12.30173 z m -20.30446,-15.41023 h -5.6879 l 0.26456,-1.78573 h 5.75403 z m 19.90763,18.51873 h -8.06888 l 0.26456,-1.78574 h 8.06887 z m -20.83357,-15.47636 h -6.08472 l 0.26455,-1.7196 h 6.08473 z m -4.76196,-3.04237 h -6.54769 l 0.26456,-1.78573 h 6.54769 z m 25.06642,21.56109 h -12.30172 l 0.26455,-1.7196 h 12.30172 z m -7.53977,-3.04236 h -4.23285 l 0.26456,-1.78574 h 4.23285 z m -18.84941,-15.47636 h -5.6879 l 0.26456,-1.7196 h 5.68789 z m 5.09265,6.217 h -3.63761 l 0.26455,-1.78574 h 3.63761 z m 0.46297,-3.1085 h -11.70648 l 0.33069,-1.78574 h 11.70648 z m -0.99208,6.15086 h -7.6059 l 0.26455,-1.7196 h 7.67204 z m -3.1085,-3.04236 h -8.06887 l 0.26455,-1.78574 h 8.06887 z m 2.64553,6.15086 h -11.77261 l 0.26455,-1.78574 h 11.77262 z m -7.14293,-3.1085 h -4.16672 l 0.26456,-1.7196 h 4.16671 z m 6.67997,6.217 H 133.9032 l 0.26455,-1.78574 h 10.58213 z m -0.52911,3.04236 h -11.70648 l 0.33069,-1.7196 h 11.64034 z m -10.05302,-3.04236 h -1.25663 l 0.33069,-1.78574 h 1.19049 z m 83.00354,-21.42881 H 205.7955 l 0.26455,-1.7196 h 11.11124 z m 0.66138,3.1085 h -7.53977 l 0.26456,-1.78574 h 7.53976 z m -2.05029,-6.15086 H 196.47 l 0.33069,-1.78574 h 18.98169 z m -8.39956,-3.1085 h -12.30173 l 0.26456,-1.78574 h 12.36786 z m -1.32277,6.15086 h -1.3889 l 0.26455,-1.7196 h 1.3889 z m 4.23285,3.1085 h -4.36512 l 0.33069,-1.78574 h 4.29899 z m 6.94452,3.1085 h -12.23558 l 0.26455,-1.78574 h 12.23559 z m -2.64553,3.04236 h -10.97896 l 0.26456,-1.7196 h 10.97896 z m -4.43126,3.1085 h -1.58732 l 0.33069,-1.78573 h 1.52118 z M 196.47,163.2895 h -10.38371 l 0.26455,-1.78574 h 10.44985 z m 19.11397,24.66958 H 215.121 l 0.26455,-1.78573 h 0.46297 z m 2.18256,3.1085 h -2.05028 l 0.33069,-1.78573 h 1.98415 z m -22.35474,-24.73572 h -12.83083 l 0.33069,-1.7196 h 12.83083 z m -2.2487,3.1085 h -8.92867 l 0.26455,-1.78574 h 8.92867 z m 25.00027,24.66958 h -7.53976 l 0.33069,-1.71959 h 7.47363 z m -9.8546,-15.41022 h -23.14841 l 0.26456,-1.78573 h 23.21454 z m -4.96038,-3.1085 h -21.29653 l 0.26456,-1.7196 h 21.29653 z m -10.11915,-3.04236 h -11.83876 l 0.26455,-1.78574 h 11.9049 z m -8.99481,-3.1085 h -3.24078 l 0.26455,-1.78574 h 3.24078 z m 30.88658,18.51872 h -25.86007 l 0.26455,-1.78573 h 25.86007 z m 2.05029,9.25936 h -11.11124 l 0.26456,-1.78573 h 11.11123 z m -6.54769,-3.1085 h -5.15879 l 0.26455,-1.71959 h 5.22493 z m 5.09265,-3.04236 h -25.79394 l 0.26455,-1.78573 h 25.86008 z m -1.52118,9.25936 h -17.92348 l 0.26455,-1.78573 h 17.92348 z M 188.8641,181.80822 h -9.3255 l 0.26455,-1.78573 h 9.3255 z m 5.02651,3.04236 h -16.4023 l 0.26455,-1.71959 h 16.4023 z m 13.62449,18.51873 h -5.42334 l 0.26455,-1.7196 h 5.42334 z m -18.25417,-15.41023 h -11.5742 l 0.26455,-1.78573 h 11.5742 z m 0.66138,3.1085 h -9.12708 l 0.26455,-1.78573 h 9.12708 z m -4.29899,3.04236 h -0.79366 l 0.26455,-1.71959 h 0.79366 z m 16.46844,9.25937 h -22.94999 l 0.33069,-1.7196 h 22.88385 z m -17.2621,-9.25937 h -9.19322 l 0.26455,-1.71959 h 9.19322 z m 11.44193,6.217 h -21.62723 l 0.26456,-1.78573 h 21.62722 z m -11.50807,-3.1085 h -7.34135 l 0.26456,-1.78573 h 7.34135 z m -7.34135,0 h -3.24077 l 0.26455,-1.78573 h 3.24078 z m 65.08004,-49.60372 h -11.64034 l 0.26456,-1.78573 h 11.64034 z m -0.46297,3.1085 h -11.77261 l 0.26455,-1.78573 h 11.83876 z m -0.39683,3.04236 h -11.83875 l 0.26455,-1.71959 h 11.83876 z m -1.12435,6.217 h -9.45777 l 0.26455,-1.78573 h 9.45778 z m -0.5291,3.30692 h -9.45778 l 0.33069,-1.78574 h 9.39164 z m -8.99481,-3.30692 h -2.11643 l 0.33069,-1.78573 h 2.05029 z m 8.66412,6.34928 h -11.83876 l 0.26455,-1.7196 h 11.83876 z m -9.19323,-3.04236 h -2.11642 l 0.33069,-1.78574 h 2.05029 z m 8.59798,6.15086 H 227.2904 l 0.3307,-1.78574 h 11.77261 z m -0.92593,6.15086 h -0.79366 l 0.26455,-1.7196 h 0.79366 z m 0.46296,-3.04236 h -11.04509 l 0.26455,-1.78574 h 11.0451 z m -1.25662,3.04236 h -10.91282 l 0.26455,-1.7196 h 10.91282 z m -9.78847,-3.04236 h -0.72752 l 0.26455,-1.78574 h 0.72752 z m 10.05302,6.15086 H 225.9015 l 0.33069,-1.78573 h 11.70648 z m -0.52911,3.1085 h -7.73818 l 0.26455,-1.78573 h 7.73819 z m -0.39683,3.04236 h -5.09265 l 0.26456,-1.71959 h 5.09265 z m -7.34135,-3.04236 h -3.9683 l 0.26456,-1.78573 h 3.96829 z m 2.2487,3.04236 h -6.61383 l 0.26456,-1.71959 h 6.61383 z m 4.56355,3.1085 h -11.77262 l 0.26455,-1.78573 h 11.77262 z m -0.46297,3.1085 h -11.70648 l 0.26455,-1.78573 h 11.70648 z"
       id="text54"
       aria-label="inkingi" /><path
       style="-inkscape-font-specification:'Linear Beam';fill:#2563eb;stroke-width:1.77156"
       d="m 360.68196,163.02494 h -6.61383 l 0.26456,-1.71959 h 6.61383 z m 1.38891,3.1085 h -9.45778 l 0.26455,-1.78573 h 9.45778 z m -4.49741,-6.15086 h -14.55042 l 0.26455,-1.78573 h 14.55043 z m -14.55042,0 h -5.95245 l 0.26455,-1.78573 h 5.95245 z m 11.04509,3.04236 h -21.49494 l 0.26455,-1.71959 h 21.49495 z m 7.0768,12.36787 h -10.7144 l 0.26455,-1.78574 h 10.78054 z m -3.57147,-3.1085 h -17.39437 l 0.26455,-1.7196 h 17.39438 z m 4.29899,9.25936 h -10.58213 l 0.26456,-1.7196 H 362.137 Z m 0.33069,-3.04236 h -20.56901 l 0.26456,-1.78574 h 20.56901 z m -19.64307,-9.25937 h -1.05821 l 0.26455,-1.78573 h 1.05821 z m -2.11643,-3.1085 h -10.58212 l 0.26455,-1.78573 h 10.58213 z m 19.84149,18.51873 h -11.24351 l 0.26455,-1.78574 h 11.24352 z m -18.78327,-15.41023 h -11.9049 l 0.33069,-1.78573 h 11.83876 z m 8.92867,6.15087 H 331.052 l 0.3307,-1.78574 h 19.31238 z m -10.25144,-3.1085 h -10.84668 l 0.26455,-1.7196 h 10.84668 z m 1.45504,6.217 h -2.84394 l 0.26455,-1.78574 h 2.84395 z m 9.92075,12.30172 h -5.75404 l 0.26456,-1.7196 h 5.75403 z m 5.62175,-3.04236 h -23.94206 l 0.26455,-1.78574 h 23.94207 z m -11.37579,3.04236 h -12.50013 l 0.26455,-1.7196 h 12.50014 z m -7.27521,-6.15086 h -12.63241 l 0.26455,-1.78574 h 12.69855 z m -5.29106,3.1085 h -5.09265 l 0.26455,-1.78574 h 5.09265 z m 73.61194,-27.77809 h -8.26728 l 0.33069,-1.78573 h 8.20115 z m -8.26728,0 h -0.46297 l 0.26455,-1.78573 h 0.52911 z m 6.34927,3.04236 h -8.73025 l 0.26455,-1.71959 h 8.73026 z m -1.65346,3.1085 h -8.66411 l 0.33069,-1.78573 h 8.59798 z m -1.45504,3.1085 h -4.76196 l 0.26456,-1.78573 h 4.76196 z m -4.76196,0 h -4.03443 l 0.26455,-1.78573 h 4.03444 z m 2.71168,3.04237 h -4.03444 l 0.33069,-1.7196 h 4.03444 z m -15.0134,-9.25937 h -0.92593 l 0.26455,-1.71959 h 0.92593 z m 10.97896,9.25937 h -4.16671 l 0.26455,-1.7196 h 4.23285 z m -11.5742,-12.30173 h -11.37579 l 0.26455,-1.78573 h 11.37579 z m 14.08745,15.41023 h -8.73025 l 0.33069,-1.78574 h 8.66412 z m -12.50013,-9.25937 h -5.55562 l 0.26455,-1.78573 h 5.62176 z m -1.91801,-3.1085 h -11.44193 l 0.26455,-1.71959 h 11.44193 z m -11.0451,-3.04236 h -1.45504 l 0.26455,-1.78573 h 1.45504 z m 21.89178,21.56109 h -1.98415 l 0.26455,-1.7196 h 2.05029 z m -14.48429,-15.41023 h -6.67997 l 0.26455,-1.78573 h 6.67997 z m 6.01858,3.1085 h -12.23558 l 0.26455,-1.78573 h 12.30173 z m 0.59525,3.04237 h -11.77262 l 0.26455,-1.7196 h 11.77262 z m 1.12435,3.1085 h -7.80432 l 0.26455,-1.78574 h 7.80432 z m 8.33343,3.1085 h -19.64308 l 0.26455,-1.78574 h 19.64308 z m -3.57147,3.04236 h -15.0134 l 0.26456,-1.7196 h 15.01339 z m -12.56628,-6.15086 h -4.03444 l 0.26456,-1.78574 h 4.03443 z m 10.97896,12.36786 h -2.38098 l 0.26455,-1.78574 h 2.44712 z m 2.05029,-3.1085 h -14.41815 l 0.26455,-1.78574 h 14.41815 z m -4.43127,3.1085 h -9.45778 l 0.26456,-1.78574 h 9.45777 z m 0.8598,3.04236 h -9.19323 l 0.26456,-1.7196 h 9.19322 z m -1.98415,3.1085 h -8.73026 l 0.26456,-1.78573 h 8.73025 z m -1.58732,3.1085 h -13.09538 l 0.26455,-1.78573 h 13.16152 z m -3.50533,3.04236 h -15.47636 l 0.26455,-1.71959 h 15.47636 z m -9.59005,-3.04236 h -5.42334 l 0.26455,-1.78573 h 5.42334 z m 70.30506,-33.99509 h -6.61383 l 0.26456,-1.71959 h 6.61383 z m 1.38891,3.1085 h -9.45778 l 0.26456,-1.78573 h 9.45777 z m -4.49741,-6.15086 h -14.55042 l 0.26455,-1.78573 h 14.55043 z m -14.55042,0 h -5.95245 l 0.26456,-1.78573 h 5.95244 z m 11.04509,3.04236 h -21.49494 l 0.26455,-1.71959 h 21.49495 z m 7.0768,12.36787 h -10.7144 l 0.26455,-1.78574 h 10.78054 z m -3.57147,-3.1085 h -17.39437 l 0.26456,-1.7196 h 17.39437 z m 4.29899,9.25936 H 433.831 l 0.26455,-1.7196 h 10.58213 z m 0.3307,-3.04236 H 424.1748 l 0.26456,-1.78574 h 20.56901 z m -19.64308,-9.25937 h -1.05821 l 0.26455,-1.78573 h 1.05821 z m -2.11642,-3.1085 h -10.58213 l 0.26455,-1.78573 h 10.58213 z m 19.84148,18.51873 h -11.24351 l 0.26456,-1.78574 h 11.24351 z m -18.78327,-15.41023 h -11.9049 l 0.3307,-1.78573 h 11.83875 z m 8.92867,6.15087 h -19.37852 l 0.33069,-1.78574 h 19.31238 z m -10.25144,-3.1085 h -10.84668 l 0.26455,-1.7196 h 10.84669 z m 1.45504,6.217 h -2.84394 l 0.26455,-1.78574 h 2.84395 z m 9.92075,12.30172 h -5.75403 l 0.26455,-1.7196 h 5.75403 z m 5.62175,-3.04236 h -23.94206 l 0.26455,-1.78574 h 23.94207 z m -11.37578,3.04236 h -12.50014 l 0.26455,-1.7196 h 12.50014 z m -7.27522,-6.15086 h -12.63241 l 0.26455,-1.78574 H 421.397 Z m -5.29106,3.1085 h -5.09265 l 0.26455,-1.78574 h 5.09265 z m 57.87103,-37.03745 h -4.82809 l 0.26455,-1.78573 h 4.8281 z m -0.39683,3.04236 h -1.45504 l 0.26456,-1.71959 h 1.45504 z m -4.43126,-3.04236 h -5.75403 l 0.33069,-1.78573 h 5.68789 z m 2.97622,3.04236 h -9.3255 l 0.26456,-1.71959 h 9.3255 z m 0.79366,3.1085 h -9.65619 l 0.26455,-1.78573 h 9.65619 z m 7.34135,6.15086 h -13.62449 l 0.26456,-1.71959 h 13.62449 z m 0.59525,-3.04236 h -25.26483 l 0.26455,-1.78573 h 25.26483 z m -17.59279,-3.1085 h -1.45504 l 0.26455,-1.78573 h 1.45504 z m 16.66685,9.25936 h -16.9314 l 0.26455,-1.78573 h 16.9314 z m -13.2938,-3.1085 h -12.89696 l 0.26455,-1.71959 h 12.89697 z m 4.36513,6.217 h -12.03717 l 0.26455,-1.78573 h 12.03717 z m -15.41022,-9.25936 h -1.38891 l 0.26456,-1.78573 h 1.3889 z m 7.40749,6.15086 h -9.19323 l 0.26456,-1.78573 h 9.19322 z m 7.53976,6.15087 h -12.16944 l 0.26455,-1.7196 h 12.23558 z m -0.46297,3.1085 h -7.20907 l 0.33069,-1.78574 h 7.14294 z m 6.94453,12.36786 h -5.48948 l 0.26455,-1.78574 h 5.48948 z m -14.1536,-12.36786 h -4.96037 l 0.26455,-1.78574 h 5.02651 z m 6.87838,3.1085 h -12.36786 l 0.33069,-1.78574 h 12.30173 z m 7.73818,6.15086 h -19.90762 l 0.26455,-1.78574 h 19.90763 z m -8.39956,-3.1085 h -12.10331 l 0.26455,-1.7196 h 12.10331 z m 7.40749,9.25936 H 460.2202 l 0.26455,-1.7196 h 15.93933 z m -4.96037,-3.04236 H 457.1117 l 0.33069,-1.78574 h 14.02132 z m -13.95518,-3.1085 h -0.66139 l 0.26456,-1.78574 h 0.66138 z m 64.88168,-15.21181 h -11.04509 l 0.26455,-1.78574 h 11.04509 z M 511.34512,160.181 h -9.72233 l 0.26455,-1.78574 h 9.72233 z m 11.24351,12.36786 h -6.28314 l 0.26455,-1.78574 h 6.28314 z m -2.05029,-6.217 h -17.7912 l 0.26455,-1.7196 h 17.7912 z m -3.1085,-3.04236 h -23.61137 l 0.26455,-1.78574 h 23.61137 z m -1.12435,9.25936 h -4.76196 l 0.26456,-1.78574 h 4.76195 z m 6.41542,3.04236 h -22.42089 l 0.26456,-1.7196 h 22.48702 z m -0.52911,3.1085 h -16.86527 l 0.26456,-1.78573 h 16.86526 z m -19.44466,-12.36786 h -12.89697 l 0.26455,-1.7196 h 12.89697 z m 16.99754,18.51872 h -10.58213 l 0.26456,-1.71959 h 10.58213 z m -2.05029,3.1085 h -5.62175 l 0.26455,-1.78573 h 5.6879 z m -18.25417,-18.51872 h -12.16944 l 0.26455,-1.78574 h 12.16945 z m -2.05028,3.1085 h -6.94452 l 0.33069,-1.78574 h 6.94452 z m 16.79913,18.51872 h -1.45505 l 0.26456,-1.78573 h 1.45504 z m -13.88905,-15.47636 h -15.60864 l 0.26456,-1.7196 h 15.60864 z m 5.02651,3.1085 h -21.16425 l 0.26455,-1.78573 h 21.16426 z m -14.88111,-6.15086 h -4.8281 l 0.33069,-1.78574 h 4.8281 z m 6.08472,9.25936 h -4.29899 l 0.26455,-1.78573 h 4.29899 z m 0.8598,3.04236 h -2.84395 l 0.33069,-1.71959 h 2.77781 z m 14.6827,3.1085 H 486.2787 l 0.26456,-1.78573 h 25.79393 z m 0.66138,3.1085 h -23.28068 l 0.33069,-1.78573 h 23.21455 z m -20.50287,-9.25936 h -7.87046 l 0.26456,-1.78573 h 7.87045 z m 2.31484,3.04236 h -9.78847 l 0.26456,-1.71959 h 9.8546 z m 91.07245,-21.56108 h -5.95245 l 0.26455,-1.78574 h 6.01859 z m -5.22493,-3.1085 h -2.71167 l 0.26455,-1.78574 h 2.71167 z m -2.71167,0 h -6.01859 l 0.3307,-1.78574 h 5.95244 z m 8.99481,9.25936 h -12.83083 l 0.26455,-1.78574 h 12.83083 z m -7.01066,-6.15086 H 566.0415 l 0.26455,-1.78574 h 13.62449 z m 7.01066,3.04236 h -23.61137 l 0.26455,-1.7196 h 23.61137 z m -0.46297,6.217 h -9.52392 l 0.26456,-1.78574 h 9.52391 z m -0.52911,3.04236 h -11.83875 l 0.26455,-1.7196 h 11.83876 z m -8.99481,-3.04236 h -2.31484 l 0.3307,-1.78574 h 2.2487 z m 8.59798,6.15086 h -11.83875 l 0.26455,-1.78573 h 11.83876 z m -0.59524,3.1085 h -6.28314 l 0.33069,-1.78573 h 6.28314 z m -0.46297,3.04236 h -3.57147 l 0.33069,-1.71959 h 3.50533 z M 562.40389,163.2895 h -8.53184 l 0.26456,-1.78574 h 8.53184 z m -4.76195,-3.1085 h -5.82018 l 0.26456,-1.78574 h 5.82017 z m 20.76742,21.62722 h -5.48948 l 0.33069,-1.78573 h 5.48948 z M 551.82176,160.181 h -2.31484 l 0.26456,-1.78574 h 2.31484 z m 28.8363,24.66958 h -8.20115 l 0.26456,-1.71959 h 8.26728 z m 3.1085,3.1085 h -11.37578 l 0.26455,-1.78573 h 11.37579 z m -18.25417,-18.51872 h -14.41815 l 0.26456,-1.78574 h 14.48428 z m -1.98415,6.15086 h -2.91008 l 0.26455,-1.7196 h 2.91009 z m 19.70922,15.47636 H 573.1183 l 0.26455,-1.78573 h 10.11916 z M 553.87205,163.2895 h -10.51599 l 0.26456,-1.78574 h 10.51599 z m 10.11916,9.25936 h -12.36786 l 0.33069,-1.78574 h 12.30172 z m -0.92593,-6.217 H 537.2052 l 0.26455,-1.7196 h 25.86008 z m 9.3255,21.62722 h -0.52911 l 0.33069,-1.78573 h 0.46297 z m -11.77262,-12.36786 h -9.45778 l 0.26456,-1.7196 h 9.45777 z m 12.50014,15.47636 h -1.65346 l 0.26455,-1.78573 h 1.65346 z m -10.11916,-12.36786 h -12.30173 l 0.26456,-1.78573 h 12.36786 z m -0.46297,3.1085 h -9.92075 l 0.26456,-1.78573 h 9.92074 z M 542.23171,163.2895 h -11.30965 l 0.26456,-1.78574 h 11.30964 z m 0.52911,6.15086 h -1.19049 l 0.26455,-1.78574 h 1.25663 z m 19.31238,15.41022 h -7.20907 l 0.26455,-1.71959 h 7.20907 z m -9.45778,-3.04236 h -2.44711 l 0.33069,-1.78573 h 2.38098 z M 537.2052,166.33186 h -6.74611 l 0.26456,-1.7196 h 6.7461 z m 17.65893,18.51872 h -5.15879 l 0.26455,-1.71959 h 5.15879 z m -13.2938,-15.41022 h -11.64034 l 0.33069,-1.78574 h 11.5742 z m 19.97376,18.51872 h -12.30172 l 0.26455,-1.78573 h 12.30173 z m -20.30445,-15.41022 h -11.77262 l 0.26455,-1.78574 h 11.77262 z m 19.84149,18.51872 h -12.36787 l 0.26456,-1.78573 h 12.36786 z m -20.83357,-15.47636 h -5.48948 l 0.3307,-1.7196 h 5.48947 z m -5.48948,0 h -5.75403 l 0.26456,-1.7196 h 5.82017 z m 5.02651,3.1085 h -11.30964 l 0.26455,-1.78573 h 11.30965 z m -0.46296,3.1085 h -11.30965 l 0.26455,-1.78573 h 11.30965 z m -0.52911,3.04236 h -9.72233 l 0.26455,-1.71959 h 9.72233 z m -0.46297,3.1085 H 527.0199 l 0.26456,-1.78573 h 11.30965 z m -9.25936,-3.1085 h -1.58732 l 0.33069,-1.71959 h 1.52118 z m 8.66412,6.217 h -11.17737 l 0.26455,-1.78573 h 11.17737 z"
       id="text1"
       aria-label="system" /></g></svg>
